# xmcd
#
# Track frame offsets:
#	150
#	10712
#	23420
#	39381
#	47556
#	74842
#	93276
#	111088
#	126672
#	140640
#	181156
#	202696
#
# Disc length: 2861 seconds
#
# Revision: 0
# Processed by: cddbd v1.5.1PL0 Copyright (c) Steve Scherf et al.
# Submitted via: EasyCDDAExtractor 4.6.0.1
#
DISCID=9c0b2b0c
DTITLE=Victor Wainwright - Shoestring
DYEAR=2004
DGENRE=Blues
TTITLE0=Pianna from Savannah
TTITLE1=Gimme a Sign
TTITLE2=Got a Long Way to Go
TTITLE3=Exit 74
TTITLE4=Certified Lover
TTITLE5=Sugar Shop
TTITLE6=She's My Cadillac
TTITLE7=I'll Never Leave the Blues
TTITLE8=Everyday
TTITLE9=Apostle of the Blues
TTITLE10=Granddaddy Boogie
TTITLE11=Shoestring
EXTD=
EXTT0=
EXTT1=
EXTT2=
EXTT3=
EXTT4=
EXTT5=
EXTT6=
EXTT7=
EXTT8=
EXTT9=
EXTT10=
EXTT11=
PLAYORDER=
